<?xml version="1.0" encoding="iso-8859-1"?>
<!-- Generator: Adobe Illustrator 18.0.0, SVG Export Plug-In . SVG Version: 6.00 Build 0)  -->
<!DOCTYPE svg PUBLIC "-//W3C//DTD SVG 1.1//EN" "http://www.w3.org/Graphics/SVG/1.1/DTD/svg11.dtd">
<svg version="1.1" id="Capa_1" xmlns="http://www.w3.org/2000/svg" xmlns:xlink="http://www.w3.org/1999/xlink" x="0px" y="0px"
	 viewBox="0 0 489.946 489.946" style="enable-background:new 0 0 489.946 489.946;" xml:space="preserve">
<g>
	<path d="M203.885,77.033c-22.44-12.922-51.979-20.039-83.172-20.039c-31.194,0-60.731,7.117-83.172,20.039
		c-23.991,13.815-37.292,32.68-37.53,53.172H0V359.89c0,40.969,53.023,73.061,120.713,73.061c67.69,0,120.714-32.092,120.714-73.061
		V130.487h-0.005C241.303,109.886,227.986,90.912,203.885,77.033z M220.427,222.696c0,28.323-45.663,52.251-99.714,52.251
		c-54.05,0-99.713-23.928-99.713-52.251v-3.864c21.566,19.125,57.829,31.447,99.713,31.447c41.885,0,78.147-12.323,99.714-31.447
		V222.696z M220.427,268.363c0,28.324-45.663,52.252-99.714,52.252c-54.05,0-99.713-23.929-99.713-52.252V264.5
		c21.566,19.124,57.829,31.447,99.713,31.447c41.885,0,78.147-12.323,99.714-31.447V268.363z M21,310.168
		c21.566,19.125,57.829,31.447,99.713,31.447c41.885,0,78.147-12.323,99.714-31.448v3.865c0,28.323-45.663,52.251-99.714,52.251
		c-54.05,0-99.713-23.928-99.713-52.251V310.168z M220.427,177.027c0,28.323-45.663,52.251-99.714,52.251
		C66.663,229.279,21,205.35,21,177.027v-4.755c21.566,18.99,57.829,31.225,99.713,31.225c41.885,0,78.147-12.236,99.714-31.225
		V177.027z M48.021,95.232c19.303-11.116,45.119-17.237,72.692-17.237c27.574,0,53.39,6.122,72.693,17.237
		c17.172,9.888,27.021,22.839,27.021,35.531c0,28.043-45.663,51.734-99.714,51.734c-54.05,0-99.713-23.691-99.713-51.734
		C21,118.071,30.849,105.12,48.021,95.232z M120.713,411.952C66.663,411.952,21,388.111,21,359.89v-4.053
		c21.566,19.124,57.829,31.447,99.713,31.447c41.885,0,78.147-12.323,99.714-31.447v4.054
		C220.427,388.111,174.763,411.952,120.713,411.952z"/>
	<path d="M489.943,262.987c-0.074-20.641-13.396-39.656-37.538-53.558c-22.44-12.922-51.979-20.039-83.173-20.039
		c-31.193,0-60.731,7.117-83.172,20.039c-24.209,13.94-37.541,33.022-37.541,53.729c0,0.005,0,0.01,0,0.016h0v92.406
		c0,40.801,53.023,72.762,120.713,72.762c67.69,0,120.714-31.961,120.714-72.762v-92.594H489.943z M468.946,309.423
		c0,28.323-45.663,52.252-99.714,52.252c-54.05,0-99.713-23.928-99.713-52.252v-4.755c21.566,18.99,57.828,31.225,99.713,31.225
		s78.147-12.235,99.714-31.225V309.423z M296.54,227.628c19.303-11.116,45.119-17.237,72.692-17.237
		c27.573,0,53.39,6.122,72.693,17.237c17.172,9.888,27.021,22.839,27.021,35.531c0,28.043-45.663,51.734-99.714,51.734
		c-54.05,0-99.713-23.691-99.713-51.734C269.52,250.467,279.368,237.516,296.54,227.628z M369.232,407.343
		c-54.05,0-99.713-23.704-99.713-51.762v-4.353c21.566,19.124,57.828,31.447,99.713,31.447s78.147-12.322,99.714-31.447v4.353
		C468.946,383.639,423.283,407.343,369.232,407.343z"/>
</g>
<g>
</g>
<g>
</g>
<g>
</g>
<g>
</g>
<g>
</g>
<g>
</g>
<g>
</g>
<g>
</g>
<g>
</g>
<g>
</g>
<g>
</g>
<g>
</g>
<g>
</g>
<g>
</g>
<g>
</g>
</svg>
